<svg width="640" height="420" viewBox="0 0 640 420" fill="none" xmlns="http://www.w3.org/2000/svg">
  <defs>
    <linearGradient id="a" x1="80" y1="40" x2="560" y2="380" gradientUnits="userSpaceOnUse">
      <stop stop-color="#DBEAFE"/>
      <stop offset="1" stop-color="#E2E8F0"/>
    </linearGradient>
  </defs>
  <rect width="640" height="420" rx="32" fill="url(#a)"/>
  <rect x="52" y="56" width="536" height="308" rx="24" fill="#0F172A"/>
  <circle cx="114" cy="118" r="26" fill="#60A5FA"/>
  <rect x="156" y="102" width="156" height="14" rx="7" fill="#475569"/>
  <rect x="156" y="128" width="118" height="12" rx="6" fill="#334155"/>

  <rect x="86" y="176" width="466" height="152" rx="16" fill="#111827"/>
  <rect x="108" y="198" width="132" height="12" rx="6" fill="#475569"/>
  <rect x="108" y="220" width="292" height="10" rx="5" fill="#334155"/>
  <rect x="108" y="240" width="252" height="10" rx="5" fill="#334155"/>

  <rect x="108" y="272" width="124" height="34" rx="17" fill="#22C55E"/>
  <text x="170" y="294" fill="#052E16" text-anchor="middle" font-size="13" font-weight="700" font-family="Arial, sans-serif">Start Selling</text>

  <rect x="430" y="272" width="100" height="34" rx="17" fill="#1D4ED8"/>
  <text x="480" y="294" fill="#DBEAFE" text-anchor="middle" font-size="13" font-weight="700" font-family="Arial, sans-serif">Profile</text>
</svg>
