<svg width="800" height="920" viewBox="0 0 800 920" fill="none" xmlns="http://www.w3.org/2000/svg">
  <defs>
    <linearGradient id="bg" x1="90" y1="60" x2="700" y2="840" gradientUnits="userSpaceOnUse">
      <stop stop-color="#EEF2FF"/>
      <stop offset="1" stop-color="#E2E8F0"/>
    </linearGradient>
    <linearGradient id="screen" x1="220" y1="160" x2="580" y2="760" gradientUnits="userSpaceOnUse">
      <stop stop-color="#0F172A"/>
      <stop offset="1" stop-color="#1E293B"/>
    </linearGradient>
    <filter id="blur" x="0" y="0" width="800" height="920" filterUnits="userSpaceOnUse" color-interpolation-filters="sRGB">
      <feGaussianBlur stdDeviation="38"/>
    </filter>
  </defs>
  <rect width="800" height="920" rx="44" fill="url(#bg)"/>
  <circle cx="170" cy="160" r="78" fill="#C7D2FE"/>
  <circle cx="690" cy="770" r="96" fill="#BFDBFE"/>
  <g filter="url(#blur)" opacity="0.45">
    <rect x="144" y="152" width="512" height="700" rx="52" fill="#94A3B8"/>
  </g>
  <rect x="162" y="126" width="476" height="700" rx="48" fill="#0B1220"/>
  <rect x="184" y="160" width="432" height="632" rx="34" fill="url(#screen)"/>
  <rect x="326" y="138" width="148" height="18" rx="9" fill="#334155"/>

  <rect x="214" y="210" width="112" height="30" rx="15" fill="#1E293B"/>
  <text x="270" y="230" fill="#CBD5E1" text-anchor="middle" font-size="14" font-family="Arial, sans-serif">Featured</text>

  <rect x="214" y="262" width="372" height="156" rx="24" fill="#111827"/>
  <rect x="234" y="284" width="150" height="16" rx="8" fill="#475569"/>
  <rect x="234" y="312" width="220" height="14" rx="7" fill="#334155"/>
  <rect x="234" y="338" width="188" height="14" rx="7" fill="#334155"/>
  <rect x="234" y="370" width="120" height="26" rx="13" fill="#22C55E"/>
  <text x="294" y="388" fill="#052E16" text-anchor="middle" font-size="13" font-weight="700" font-family="Arial, sans-serif">$120 Session</text>

  <rect x="214" y="442" width="176" height="158" rx="20" fill="#111827"/>
  <rect x="234" y="464" width="92" height="14" rx="7" fill="#475569"/>
  <rect x="234" y="488" width="120" height="12" rx="6" fill="#334155"/>
  <rect x="234" y="512" width="102" height="12" rx="6" fill="#334155"/>
  <circle cx="264" cy="562" r="26" fill="#60A5FA"/>
  <circle cx="320" cy="562" r="26" fill="#F472B6"/>

  <rect x="410" y="442" width="176" height="158" rx="20" fill="#111827"/>
  <rect x="430" y="464" width="112" height="14" rx="7" fill="#475569"/>
  <rect x="430" y="488" width="120" height="12" rx="6" fill="#334155"/>
  <rect x="430" y="512" width="106" height="12" rx="6" fill="#334155"/>
  <rect x="430" y="538" width="86" height="10" rx="5" fill="#1D4ED8"/>
  <rect x="430" y="556" width="62" height="10" rx="5" fill="#0EA5E9"/>

  <rect x="214" y="622" width="372" height="130" rx="20" fill="#111827"/>
  <rect x="234" y="646" width="132" height="14" rx="7" fill="#475569"/>
  <rect x="234" y="672" width="228" height="12" rx="6" fill="#334155"/>
  <rect x="234" y="696" width="196" height="12" rx="6" fill="#334155"/>
  <rect x="494" y="660" width="72" height="32" rx="16" fill="#2563EB"/>
  <text x="530" y="681" fill="#DBEAFE" text-anchor="middle" font-size="13" font-weight="700" font-family="Arial, sans-serif">Buy</text>
</svg>
