<svg width="120" height="120" viewBox="0 0 120 120" fill="none" xmlns="http://www.w3.org/2000/svg">
  <defs>
    <radialGradient id="glow" cx="0" cy="0" r="1" gradientUnits="userSpaceOnUse" gradientTransform="translate(60 60) rotate(90) scale(52)">
      <stop stop-color="#22F5E3" stop-opacity="0.34"/>
      <stop offset="1" stop-color="#22F5E3" stop-opacity="0"/>
    </radialGradient>
  </defs>
  <rect width="120" height="120" rx="24" fill="url(#glow)"/>
  <path d="M60 26L64.3 42.2L80.5 46.5L64.3 50.8L60 67L55.7 50.8L39.5 46.5L55.7 42.2L60 26Z" fill="#22F5E3"/>
  <path d="M35 34L36.8 40.2L43 42L36.8 43.8L35 50L33.2 43.8L27 42L33.2 40.2L35 34Z" fill="#22F5E3"/>
  <path d="M86 42L87.4 47.1L92.5 48.5L87.4 49.9L86 55L84.6 49.9L79.5 48.5L84.6 47.1L86 42Z" fill="#22F5E3"/>
</svg>
